<svg xmlns="http://www.w3.org/2000/svg" fill="none" viewBox="0 0 218 150">
  <defs/>
  <path fill="#B6DBFF" d="M201.169 13.576L170.845 24.88h-16.341l-.259-.745 44.742-16.663 2.182 6.105zM203.023 47.483a3.226 3.226 0 01-3.228 3.229 3.228 3.228 0 01-3.23-3.229 3.228 3.228 0 013.23-3.23 3.226 3.226 0 013.228 3.23z"/>
  <path fill="#63A8F1" d="M214.326 53.941c0 .89-.725 1.615-1.615 1.615h-19.375a1.617 1.617 0 01-1.614-1.614V41.024c0-.89.725-1.615 1.614-1.615h19.375c.89 0 1.615.726 1.615 1.615v12.916zm-6.458 12.917c0 .89-.726 1.615-1.615 1.615h-54.896c-.89 0-1.615-.725-1.615-1.615v-38.75c0-.889.725-1.615 1.615-1.615h54.896c.889 0 1.615.726 1.615 1.615v8.073h-14.532a4.845 4.845 0 00-4.844 4.844v12.916a4.845 4.845 0 004.844 4.844h14.532v8.073zm-9.852-57.3l.687 1.918.404 1.142-28.552 10.646h-9.34L198.016 9.56zm-42.396 8.875l38.782-14.449a1.466 1.466 0 011.154.044c.391.183.681.504.826.915l.555 1.57-41.714 15.54-.536-1.508c-.303-.864.114-1.81.933-2.112zm44.565-2.768l2.7 7.6h-23.084l20.384-7.6zm12.526 20.516h-1.615v-8.073a4.842 4.842 0 00-4.78-4.838l-3.626-10.204v-.032l-1.167-3.267-2.094-5.903a4.825 4.825 0 00-2.505-2.763 4.707 4.707 0 00-3.651-.145l-38.782 14.45c-2.466.92-3.74 3.708-2.851 6.218l.581 1.64h-.864a4.845 4.845 0 00-4.844 4.844v38.75a4.845 4.845 0 004.844 4.844h54.896a4.845 4.845 0 004.843-4.844v-8.073h1.615a4.845 4.845 0 004.844-4.843V41.024a4.845 4.845 0 00-4.844-4.844z"/>
  <path fill="#63A8F1" d="M199.795 49.098c-.89 0-1.615-.726-1.615-1.615 0-.89.725-1.614 1.615-1.614.888 0 1.614.725 1.614 1.614 0 .889-.726 1.615-1.614 1.615zm0-6.459a4.846 4.846 0 00-4.845 4.844 4.845 4.845 0 009.688 0 4.845 4.845 0 00-4.843-4.844z"/>
  <path fill="#076EDA" d="M34.941 100.21c0 2.432-.57 4.655-1.71 6.669-1.102 1.976-2.793 3.572-5.073 4.788-2.242 1.178-4.997 1.767-8.265 1.767h-5.529V127H3.192V86.815h16.701c3.23 0 5.966.57 8.208 1.71 2.28 1.14 3.99 2.717 5.13 4.731 1.14 2.014 1.71 4.332 1.71 6.954zm-16.131 4.332c3.154 0 4.731-1.444 4.731-4.332 0-2.926-1.577-4.389-4.731-4.389h-4.446v8.721h4.446zm58.453 6.441c0-3.306.684-6.194 2.052-8.664 1.368-2.47 3.268-4.37 5.7-5.7 2.47-1.33 5.282-1.995 8.436-1.995 4.066 0 7.486 1.121 10.26 3.363 2.774 2.204 4.56 5.301 5.358 9.291H97.213c-.684-2.09-2.014-3.135-3.99-3.135-1.406 0-2.527.589-3.363 1.767-.798 1.14-1.197 2.831-1.197 5.073 0 2.242.399 3.952 1.197 5.13.836 1.178 1.957 1.767 3.363 1.767 2.014 0 3.344-1.045 3.99-3.135h11.856c-.798 3.952-2.584 7.049-5.358 9.291-2.774 2.242-6.194 3.363-10.26 3.363-3.154 0-5.966-.665-8.436-1.995-2.432-1.33-4.332-3.23-5.7-5.7-1.368-2.47-2.052-5.377-2.052-8.721zM135.427 127l-8.835-13.11V127H115.42V84.82h11.172v22.743l8.835-12.54h13.395l-12.597 16.074L149.05 127h-13.623z"/>
  <path fill="#63A8F1" d="M56.016 127.399c-3.192 0-6.06-.665-8.607-1.995-2.508-1.33-4.484-3.23-5.928-5.7s-2.166-5.377-2.166-8.721c0-3.306.722-6.194 2.166-8.664 1.482-2.47 3.477-4.37 5.985-5.7 2.546-1.33 5.415-1.995 8.607-1.995 3.192 0 6.042.665 8.55 1.995 2.546 1.33 4.541 3.23 5.985 5.7 1.482 2.47 2.223 5.358 2.223 8.664s-.74 6.213-2.223 8.721c-1.444 2.47-3.439 4.37-5.985 5.7-2.546 1.33-5.415 1.995-8.607 1.995zm0-9.69c1.558 0 2.85-.57 3.876-1.71 1.064-1.178 1.596-2.85 1.596-5.016s-.532-3.819-1.596-4.959c-1.026-1.14-2.299-1.71-3.819-1.71s-2.793.57-3.819 1.71c-1.026 1.14-1.539 2.793-1.539 4.959 0 2.204.494 3.876 1.482 5.016.988 1.14 2.261 1.71 3.82 1.71zm103.662-25.65c-1.976 0-3.572-.532-4.788-1.596-1.178-1.102-1.767-2.47-1.767-4.104 0-1.672.589-3.059 1.767-4.161 1.216-1.102 2.812-1.653 4.788-1.653 1.938 0 3.496.551 4.674 1.653 1.216 1.102 1.824 2.489 1.824 4.161 0 1.634-.608 3.002-1.824 4.104-1.178 1.064-2.736 1.596-4.674 1.596zm5.529 2.964V127h-11.172V95.023h11.172zm38.624 15.618c0 .874-.057 1.748-.171 2.622h-21.147c.114 1.748.589 3.059 1.425 3.933.874.836 1.976 1.254 3.306 1.254 1.862 0 3.192-.836 3.99-2.508h11.913a13.987 13.987 0 01-2.907 5.928c-1.406 1.71-3.192 3.059-5.358 4.047-2.166.988-4.56 1.482-7.182 1.482-3.154 0-5.966-.665-8.436-1.995-2.432-1.33-4.351-3.23-5.757-5.7-1.368-2.47-2.052-5.377-2.052-8.721 0-3.344.684-6.232 2.052-8.664 1.368-2.47 3.268-4.37 5.7-5.7 2.47-1.33 5.301-1.995 8.493-1.995 3.154 0 5.947.646 8.379 1.938 2.432 1.292 4.332 3.154 5.7 5.586 1.368 2.394 2.052 5.225 2.052 8.493zm-11.4-2.793c0-1.368-.456-2.432-1.368-3.192-.912-.798-2.052-1.197-3.42-1.197-1.368 0-2.489.38-3.363 1.14-.874.722-1.444 1.805-1.71 3.249h9.861z"/>
</svg>
